<?xml version="1.0" encoding="UTF-8" standalone="no"?>
<!-- Generator: Adobe Illustrator 16.0.3, SVG Export Plug-In . SVG Version: 6.00 Build 0)  -->

<svg
   version="1.1"
   id="Layer_1"
   x="0px"
   y="0px"
   width="160px"
   height="120px"
   viewBox="0 0 160 120"
   enable-background="new 0 0 160 120"
   xml:space="preserve"
   sodipodi:docname="dssp-logo.svg"
   inkscape:version="1.1.2 (0a00cf5339, 2022-02-04)"
   xmlns:inkscape="http://www.inkscape.org/namespaces/inkscape"
   xmlns:sodipodi="http://sodipodi.sourceforge.net/DTD/sodipodi-0.dtd"
   xmlns="http://www.w3.org/2000/svg"
   xmlns:svg="http://www.w3.org/2000/svg"
   xmlns:rdf="http://www.w3.org/1999/02/22-rdf-syntax-ns#"
   xmlns:cc="http://creativecommons.org/ns#"
   xmlns:dc="http://purl.org/dc/elements/1.1/"><g
   aria-label="define secondary
structure of proteins"
   id="text52784"
   style="font-size:14.6667px;line-height:1.25;font-family:'PMN Caecilia LT';-inkscape-font-specification:'PMN Caecilia LT';letter-spacing:0px;word-spacing:0px;fill:#ff9933"><path
     d="m 30.910112,75.104308 q 0,1.675785 0.880862,1.675785 0.73047,0 1.403649,-0.966799 0.587241,-0.837892 1.024091,-2.220057 0.401042,-1.296227 0.522787,-2.47787 -0.479819,-0.186199 -1.059898,-0.186199 -1.024091,0 -1.682947,0.644533 -0.572918,0.558595 -0.852215,1.568363 -0.236329,0.852216 -0.236329,1.962244 z m 4.139333,-7.741554 h -1.353519 l 0.0931,-0.92383 h 2.492193 l -0.909507,10.355492 h 1.11719 l -0.0931,0.92383 h -2.18425 q 0.114584,-1.496748 0.379558,-2.972012 0.07878,-0.458334 0.164714,-0.823569 h -0.02865 q -0.408204,1.511071 -0.981122,2.485032 -0.852215,1.453779 -2.083989,1.453779 -1.031252,0 -1.525394,-0.888023 -0.401043,-0.708986 -0.401043,-1.84766 0,-1.382165 0.444012,-2.549485 0.372396,-0.995445 0.902346,-1.525395 0.53711,-0.53711 1.059898,-0.766277 0.644533,-0.279298 1.496748,-0.279298 0.422527,0 0.973961,0.0931 0.143229,0.02865 0.200521,0.05013 z"
     style="font-style:italic;-inkscape-font-specification:'PMN Caecilia LT Italic';text-align:center;text-anchor:middle"
     id="path113586" /><path
     d="m 42.253888,71.795707 q 0,-0.558595 -0.608725,-0.787762 -0.214845,-0.07878 -0.508465,-0.07878 -0.988284,0 -1.625655,0.902346 -0.572918,0.809247 -0.708986,2.13412 1.668624,-0.214845 2.513678,-0.694663 0.938153,-0.537111 0.938153,-1.475264 z m 0.465496,5.514335 q -0.358074,0.207683 -0.880862,0.350913 -0.701824,0.200521 -1.403649,0.200521 -1.425133,0 -2.098312,-0.780601 -0.701824,-0.816408 -0.701824,-2.6211 0,-1.940759 1.067059,-3.222663 1.024091,-1.231774 2.642585,-1.231774 1.024091,0 1.589847,0.529949 0.494142,0.472658 0.494142,1.181644 0,1.281904 -1.353519,2.098312 -1.224612,0.737632 -3.272794,0.966799 0,1.110028 0.529949,1.618493 0.472658,0.465496 1.396488,0.465496 1.059898,0 2.126958,-0.673179 z"
     style="font-style:italic;-inkscape-font-specification:'PMN Caecilia LT Italic';text-align:center;text-anchor:middle"
     id="path113588" /><path
     d="m 42.103497,80.375154 q 0.494141,0.200521 1.074221,0.200521 0.751955,0 1.289065,-0.451173 0.315105,-0.264975 0.501304,-0.945315 0.186198,-0.708986 0.300781,-2.177088 l 0.472658,-5.929701 h -1.174482 l 0.07161,-0.92383 h 1.160159 l 0.08594,-0.852216 q 0.157553,-1.532555 0.859377,-2.227219 0.751955,-0.744793 2.341803,-0.744793 0.859376,0 1.317711,0.186198 l -0.07162,0.909508 q -0.544272,-0.171876 -1.102867,-0.171876 -0.988284,0 -1.50391,0.429689 -0.601564,0.508465 -0.723309,1.668623 l -0.08594,0.802086 h 1.976567 l -0.07162,0.92383 h -1.962244 l -0.472657,5.97267 q -0.121746,1.525394 -0.315105,2.270187 -0.264975,0.988284 -0.816408,1.511072 -0.794924,0.751954 -1.876307,0.751954 -0.723309,0 -1.346357,-0.222005 z"
     style="font-style:italic;-inkscape-font-specification:'PMN Caecilia LT Italic';text-align:center;text-anchor:middle"
     id="path113590" /><path
     d="m 51.434899,66.32434 q 0.336589,0 0.58008,0.250652 0.250651,0.24349 0.250651,0.580079 0,0.343751 -0.250651,0.594403 -0.243491,0.24349 -0.58008,0.24349 -0.343751,0 -0.594402,-0.24349 -0.24349,-0.250652 -0.24349,-0.594403 0,-0.343751 0.250651,-0.587241 0.250652,-0.24349 0.587241,-0.24349 z m -0.866538,4.748058 h -1.174482 l 0.08594,-0.92383 h 2.305995 l -0.601564,6.645848 h 1.110029 l -0.08594,0.92383 h -2.241541 z"
     style="font-style:italic;-inkscape-font-specification:'PMN Caecilia LT Italic';text-align:center;text-anchor:middle"
     id="path113592" /><path
     d="m 53.497403,70.148568 h 2.305995 q -0.07878,0.444011 -0.136068,0.852215 l -0.24349,1.754561 q -0.07162,0.486981 -0.179037,1.088545 l 0.02865,0.01432 q 0.58008,-2.18425 1.969406,-3.287117 0.708986,-0.565757 1.403649,-0.565757 1.453779,0 1.453779,1.919275 0,0.759117 -0.171875,2.248703 -0.07878,0.644533 -0.164714,1.31055 l -0.164714,1.31055 h 1.11719 l -0.0931,0.92383 h -2.255865 q 0.107422,-0.909507 0.222006,-1.761722 l 0.200521,-1.582686 q 0.19336,-1.604171 0.19336,-2.241542 0,-0.608725 -0.150391,-0.837892 -0.143229,-0.207683 -0.494142,-0.207683 -0.751955,0 -1.482425,0.981122 -0.859377,1.160159 -1.382165,3.029304 -0.121745,0.444011 -0.171875,0.744793 l -0.307943,1.876306 h -1.11719 q 0.34375,-2.699876 0.708986,-6.645848 h -1.174482 z"
     style="font-style:italic;-inkscape-font-specification:'PMN Caecilia LT Italic';text-align:center;text-anchor:middle"
     id="path113594" /><path
     d="m 66.423865,71.795707 q 0,-0.558595 -0.608725,-0.787762 -0.214844,-0.07878 -0.508465,-0.07878 -0.988283,0 -1.625655,0.902346 -0.572918,0.809247 -0.708986,2.13412 1.668624,-0.214845 2.513678,-0.694663 0.938153,-0.537111 0.938153,-1.475264 z m 0.465496,5.514335 q -0.358074,0.207683 -0.880861,0.350913 -0.701825,0.200521 -1.403649,0.200521 -1.425134,0 -2.098313,-0.780601 -0.701824,-0.816408 -0.701824,-2.6211 0,-1.940759 1.06706,-3.222663 1.024091,-1.231774 2.642584,-1.231774 1.024091,0 1.589847,0.529949 0.494142,0.472658 0.494142,1.181644 0,1.281904 -1.353519,2.098312 -1.224612,0.737632 -3.272794,0.966799 0,1.110028 0.529949,1.618493 0.472658,0.465496 1.396488,0.465496 1.059898,0 2.126958,-0.673179 z"
     style="font-style:italic;-inkscape-font-specification:'PMN Caecilia LT Italic';text-align:center;text-anchor:middle"
     id="path113596" /><path
     d="m 72.8119,75.491028 h 0.952476 l -0.05729,1.152997 q 0.644533,0.293621 1.582686,0.293621 0.773439,0 1.224612,-0.401043 0.422527,-0.365235 0.422527,-0.930992 0,-0.501303 -0.608725,-0.852215 -0.300782,-0.171875 -1.339196,-0.558595 -0.938153,-0.343751 -1.346357,-0.687502 -0.608725,-0.501303 -0.608725,-1.246096 0,-1.038414 0.687501,-1.625655 0.737632,-0.63021 2.098312,-0.63021 0.658856,0 1.324873,0.136068 0.501303,0.107422 0.945315,0.257813 l -0.14323,1.904953 h -0.952476 l 0.05729,-1.160159 q -0.537111,-0.214845 -1.289066,-0.214845 -0.852215,0 -1.274742,0.379559 -0.343751,0.315104 -0.343751,0.744793 0,0.637371 0.830731,1.009768 0.229167,0.10026 0.565757,0.229167 l 0.852215,0.322266 q 0.837893,0.315105 1.181644,0.637372 0.472657,0.444011 0.472657,1.195966 0,1.174482 -0.751955,1.79753 -0.751955,0.615887 -2.105474,0.615887 -0.759116,0 -1.475263,-0.150391 -0.501304,-0.107422 -1.045576,-0.315105 z"
     style="font-style:italic;-inkscape-font-specification:'PMN Caecilia LT Italic';text-align:center;text-anchor:middle"
     id="path113598" /><path
     d="m 84.076899,71.795707 q 0,-0.558595 -0.608725,-0.787762 -0.214844,-0.07878 -0.508465,-0.07878 -0.988283,0 -1.625655,0.902346 -0.572918,0.809247 -0.708986,2.13412 1.668624,-0.214845 2.513678,-0.694663 0.938153,-0.537111 0.938153,-1.475264 z m 0.465496,5.514335 q -0.358074,0.207683 -0.880861,0.350913 -0.701825,0.200521 -1.403649,0.200521 -1.425134,0 -2.098312,-0.780601 -0.701825,-0.816408 -0.701825,-2.6211 0,-1.940759 1.06706,-3.222663 1.024091,-1.231774 2.642584,-1.231774 1.024091,0 1.589847,0.529949 0.494142,0.472658 0.494142,1.181644 0,1.281904 -1.353519,2.098312 -1.224612,0.737632 -3.272794,0.966799 0,1.110028 0.52995,1.618493 0.472657,0.465496 1.396487,0.465496 1.059898,0 2.126958,-0.673179 z"
     style="font-style:italic;-inkscape-font-specification:'PMN Caecilia LT Italic';text-align:center;text-anchor:middle"
     id="path113600" /><path
     d="m 90.601006,71.015106 q -0.329428,-0.08594 -0.687501,-0.08594 -1.246097,0 -1.897791,1.002607 -0.601564,0.916669 -0.601564,2.470709 0,1.267581 0.551434,1.89779 0.494141,0.565757 1.36068,0.565757 0.902346,0 1.947921,-0.558595 l -0.100261,1.045575 q -0.959637,0.508465 -2.098312,0.508465 -1.468102,0 -2.212896,-1.095706 -0.615886,-0.902346 -0.615886,-2.277349 0,-1.947921 0.930991,-3.172533 0.988284,-1.31055 2.778653,-1.31055 0.959637,0 1.682946,0.264975 l -0.143229,1.904952 h -0.952476 z"
     style="font-style:italic;-inkscape-font-specification:'PMN Caecilia LT Italic';text-align:center;text-anchor:middle"
     id="path113602" /><path
     d="m 93.658954,74.538552 q 0,1.145836 0.508465,1.761722 0.465496,0.565757 1.238935,0.565757 0.938153,0 1.525394,-0.744793 0.723309,-0.902346 0.723309,-2.785814 0,-1.152998 -0.508464,-1.768884 -0.465496,-0.565757 -1.238935,-0.565757 -0.938154,0 -1.525395,0.744793 -0.723309,0.916669 -0.723309,2.792976 z m -1.16732,-0.05013 q 0,-1.904952 0.902346,-3.151049 0.966799,-1.332034 2.599615,-1.332034 1.475264,0 2.212896,1.095706 0.615887,0.909507 0.615887,2.291672 0,1.933598 -0.902346,3.15821 -0.959638,1.31055 -2.599615,1.31055 -1.468103,0 -2.212896,-1.095706 -0.615887,-0.902346 -0.615887,-2.277349 z"
     style="font-style:italic;-inkscape-font-specification:'PMN Caecilia LT Italic';text-align:center;text-anchor:middle"
     id="path113604" /><path
     d="m 99.939569,70.148568 h 2.305991 q -0.0788,0.444011 -0.13606,0.852215 l -0.24349,1.754561 q -0.0716,0.486981 -0.17904,1.088545 l 0.0286,0.01432 q 0.58008,-2.18425 1.96941,-3.287117 0.70899,-0.565757 1.40365,-0.565757 1.45378,0 1.45378,1.919275 0,0.759117 -0.17188,2.248703 -0.0788,0.644533 -0.16471,1.31055 l -0.16471,1.31055 h 1.11719 l -0.0931,0.92383 h -2.25587 q 0.10742,-0.909507 0.22201,-1.761722 l 0.20052,-1.582686 q 0.19336,-1.604171 0.19336,-2.241542 0,-0.608725 -0.15039,-0.837892 -0.14323,-0.207683 -0.49414,-0.207683 -0.75196,0 -1.48243,0.981122 -0.85938,1.160159 -1.38216,3.029304 -0.12175,0.444011 -0.17188,0.744793 l -0.30794,1.876306 h -1.11719 q 0.34375,-2.699876 0.70898,-6.645848 h -1.174479 z"
     style="font-style:italic;-inkscape-font-specification:'PMN Caecilia LT Italic';text-align:center;text-anchor:middle"
     id="path113606" /><path
     d="m 109.67917,75.104308 q 0,1.675785 0.88086,1.675785 0.73047,0 1.40365,-0.966799 0.58724,-0.837892 1.02409,-2.220057 0.40104,-1.296227 0.52279,-2.47787 -0.47982,-0.186199 -1.0599,-0.186199 -1.02409,0 -1.68295,0.644533 -0.57291,0.558595 -0.85221,1.568363 -0.23633,0.852216 -0.23633,1.962244 z m 4.13933,-7.741554 h -1.35352 l 0.0931,-0.92383 h 2.4922 l -0.90951,10.355492 h 1.11719 l -0.0931,0.92383 h -2.18425 q 0.11458,-1.496748 0.37956,-2.972012 0.0788,-0.458334 0.16471,-0.823569 h -0.0286 q -0.40821,1.511071 -0.98113,2.485032 -0.85221,1.453779 -2.08398,1.453779 -1.03126,0 -1.5254,-0.888023 -0.40104,-0.708986 -0.40104,-1.84766 0,-1.382165 0.44401,-2.549485 0.3724,-0.995445 0.90235,-1.525395 0.53711,-0.53711 1.05989,-0.766277 0.64454,-0.279298 1.49675,-0.279298 0.42253,0 0.97396,0.0931 0.14323,0.02865 0.20052,0.05013 z"
     style="font-style:italic;-inkscape-font-specification:'PMN Caecilia LT Italic';text-align:center;text-anchor:middle"
     id="path113608" /><path
     d="m 117.83609,75.104308 q 0,1.675785 0.88086,1.675785 0.73047,0 1.40365,-0.966799 0.58724,-0.837892 1.02409,-2.220057 0.40105,-1.296227 0.52279,-2.47787 -0.47982,-0.186199 -1.0599,-0.186199 -1.02409,0 -1.68294,0.644533 -0.57292,0.558595 -0.85222,1.568363 -0.23633,0.852216 -0.23633,1.962244 z m 5.57879,1.690108 -0.0931,0.92383 h -2.19857 q 0.12174,-1.632816 0.3724,-2.957689 0.0859,-0.458334 0.18619,-0.823569 l -0.0286,-0.02865 q -0.41537,1.532555 -0.98112,2.499355 -0.85222,1.453779 -2.08399,1.453779 -1.39649,0 -1.79753,-1.632816 -0.12891,-0.501304 -0.12891,-1.102867 0,-1.382165 0.44401,-2.549485 0.3724,-0.995445 0.90951,-1.532556 0.5944,-0.594402 1.34636,-0.837893 0.61588,-0.200521 1.42513,-0.200521 0.85221,0 1.61133,0.350912 h 0.5013 q -0.10742,0.486981 -0.222,1.661463 -0.16472,1.618493 -0.30794,3.638029 -0.043,0.608725 -0.0716,1.138674 z"
     style="font-style:italic;-inkscape-font-specification:'PMN Caecilia LT Italic';text-align:center;text-anchor:middle"
     id="path113610" /><path
     d="m 124.70395,70.148568 h 2.19857 l -0.11458,1.317711 q -0.0716,0.837893 -0.23633,1.955083 l 0.0286,0.02864 q 0.34375,-1.682946 0.90951,-2.499354 0.6517,-0.945315 1.7474,-0.945315 0.45834,0 0.71615,0.07162 l -0.17188,1.06706 q -0.30794,-0.05729 -0.5013,-0.05729 -1.153,0 -1.8405,1.453779 -0.75195,1.575525 -1.13867,5.177746 h -1.11003 q 0.22917,-1.725915 0.35807,-3.416023 l 0.24349,-3.229825 h -1.17448 z"
     style="font-style:italic;-inkscape-font-specification:'PMN Caecilia LT Italic';text-align:center;text-anchor:middle"
     id="path113612" /><path
     d="m 129.8244,80.532706 q 0.39388,0.121745 0.85222,0.121745 0.83789,0 1.4681,-0.8737 0.27214,-0.393881 0.52995,-0.930992 l 0.43685,-0.92383 -1.94792,-6.853531 h -1.11719 l 0.0859,-0.92383 h 2.05534 l 1.38932,5.500012 q 0.17904,0.708986 0.17904,1.074221 h 0.0286 l 0.1862,-0.623048 q 0.10026,-0.343751 0.17903,-0.551433 l 1.76173,-4.475922 h -1.26042 l 0.0859,-0.92383 h 2.33464 l -0.0859,0.92383 -1.2461,3.065111 q -0.62305,1.568363 -1.98373,4.66212 -0.78776,1.618493 -1.46094,2.212896 -0.64453,0.565756 -1.66146,0.565756 -0.35808,0 -0.89519,-0.121745 z"
     style="font-style:italic;-inkscape-font-specification:'PMN Caecilia LT Italic';text-align:center;text-anchor:middle"
     id="path113614" /><path
     d="m 17.944262,93.824403 h 0.952476 l -0.05729,1.152998 q 0.644533,0.29362 1.582686,0.29362 0.77344,0 1.224613,-0.401042 0.422527,-0.365236 0.422527,-0.930992 0,-0.501303 -0.608726,-0.852216 -0.300782,-0.171875 -1.339196,-0.558595 -0.938153,-0.34375 -1.346357,-0.687501 -0.608725,-0.501303 -0.608725,-1.246097 0,-1.038414 0.687501,-1.625655 0.737632,-0.630209 2.098312,-0.630209 0.658856,0 1.324873,0.136068 0.501304,0.107422 0.945315,0.257813 l -0.14323,1.904952 h -0.952476 l 0.05729,-1.160159 q -0.53711,-0.214844 -1.289065,-0.214844 -0.852216,0 -1.274743,0.379558 -0.343751,0.315105 -0.343751,0.744793 0,0.637372 0.830731,1.009768 0.229168,0.100261 0.565757,0.229167 l 0.852215,0.322267 q 0.837893,0.315105 1.181644,0.637371 0.472657,0.444012 0.472657,1.195966 0,1.174482 -0.751955,1.797531 -0.751955,0.615886 -2.105473,0.615886 -0.759117,0 -1.475264,-0.150391 -0.501303,-0.107422 -1.045575,-0.315104 z"
     style="font-style:italic;-inkscape-font-specification:'PMN Caecilia LT Italic';text-align:center;text-anchor:middle"
     id="path113616" /><path
     d="m 25.821884,89.405773 h -1.21745 l 0.07161,-0.92383 h 1.231774 l 0.179037,-1.890629 1.110029,-0.04297 -0.171876,1.933598 h 2.155604 l -0.07878,0.92383 h -2.169927 l -0.408204,4.619152 q -0.100261,1.174481 0.780601,1.174481 0.737632,0 1.568363,-0.451172 l -0.0931,1.038413 q -0.77344,0.408204 -1.69727,0.408204 -0.938153,0 -1.339196,-0.522787 -0.451173,-0.572918 -0.336589,-1.776046 z"
     style="font-style:italic;-inkscape-font-specification:'PMN Caecilia LT Italic';text-align:center;text-anchor:middle"
     id="path113618" /><path
     d="m 29.896763,88.481943 h 2.198573 l -0.114583,1.317711 q -0.07162,0.837893 -0.236329,1.955083 l 0.02865,0.02865 q 0.343751,-1.682947 0.909507,-2.499355 0.651694,-0.945314 1.7474,-0.945314 0.458334,0 0.716147,0.07161 l -0.171875,1.06706 q -0.307943,-0.05729 -0.501303,-0.05729 -1.152998,0 -1.840499,1.45378 -0.751955,1.575524 -1.138675,5.177746 h -1.110028 q 0.229167,-1.725916 0.358073,-3.416024 l 0.243491,-3.229825 h -1.174482 z"
     style="font-style:italic;-inkscape-font-specification:'PMN Caecilia LT Italic';text-align:center;text-anchor:middle"
     id="path113620" /><path
     d="M 43.202783,96.051622 H 40.90395 q 0.07161,-0.444012 0.128906,-0.852216 l 0.250652,-1.754561 q 0.06445,-0.48698 0.171875,-1.088544 l -0.02865,-0.01432 q -0.408204,1.568363 -1.332034,2.664069 -0.995445,1.188804 -2.04102,1.188804 -1.446618,0 -1.446618,-1.919275 0,-0.830731 0.186198,-2.370448 0.107422,-0.830731 0.307944,-2.499355 h -1.11719 l 0.0931,-0.92383 h 2.255864 q -0.143229,1.081383 -0.415365,3.244148 -0.200522,1.55404 -0.200522,2.348964 0,1.038414 0.644533,1.038414 0.751955,0 1.482425,-0.988284 0.859377,-1.152997 1.382165,-3.029304 0.121745,-0.43685 0.171875,-0.737632 l 0.307944,-1.876306 h 1.11719 q -0.322266,2.506516 -0.701825,6.645849 h 1.167321 z"
     style="font-style:italic;-inkscape-font-specification:'PMN Caecilia LT Italic';text-align:center;text-anchor:middle"
     id="path113622" /><path
     d="m 48.774411,89.348482 q -0.329428,-0.08594 -0.687502,-0.08594 -1.246096,0 -1.897791,1.002606 -0.601563,0.916669 -0.601563,2.470709 0,1.267581 0.551433,1.897791 0.494142,0.565756 1.36068,0.565756 0.902346,0 1.947922,-0.558595 l -0.100261,1.045576 q -0.959638,0.508464 -2.098312,0.508464 -1.468103,0 -2.212896,-1.095705 -0.615887,-0.902346 -0.615887,-2.277349 0,-1.947921 0.930992,-3.172534 0.988283,-1.310549 2.778652,-1.310549 0.959638,0 1.682947,0.264974 l -0.14323,1.904952 h -0.952476 z"
     style="font-style:italic;-inkscape-font-specification:'PMN Caecilia LT Italic';text-align:center;text-anchor:middle"
     id="path113624" /><path
     d="m 51.896816,89.405773 h -1.217451 l 0.07162,-0.92383 h 1.231774 l 0.179037,-1.890629 1.110028,-0.04297 -0.171875,1.933598 h 2.155604 l -0.07878,0.92383 h -2.169927 l -0.408204,4.619152 q -0.100261,1.174481 0.7806,1.174481 0.737632,0 1.568363,-0.451172 l -0.0931,1.038413 q -0.773439,0.408204 -1.697269,0.408204 -0.938154,0 -1.339196,-0.522787 -0.451173,-0.572918 -0.336589,-1.776046 z"
     style="font-style:italic;-inkscape-font-specification:'PMN Caecilia LT Italic';text-align:center;text-anchor:middle"
     id="path113626" /><path
     d="M 63.305044,96.051622 H 61.00621 q 0.07161,-0.444012 0.128907,-0.852216 l 0.250651,-1.754561 q 0.06445,-0.48698 0.171876,-1.088544 l -0.02865,-0.01432 q -0.408204,1.568363 -1.332034,2.664069 -0.995445,1.188804 -2.041021,1.188804 -1.446618,0 -1.446618,-1.919275 0,-0.830731 0.186199,-2.370448 0.107422,-0.830731 0.307943,-2.499355 h -1.11719 l 0.0931,-0.92383 h 2.255865 q -0.14323,1.081383 -0.415366,3.244148 -0.200521,1.55404 -0.200521,2.348964 0,1.038414 0.644533,1.038414 0.751955,0 1.482425,-0.988284 0.859377,-1.152997 1.382165,-3.029304 0.121745,-0.43685 0.171875,-0.737632 l 0.307943,-1.876306 h 1.117191 q -0.322267,2.506516 -0.701825,6.645849 h 1.16732 z"
     style="font-style:italic;-inkscape-font-specification:'PMN Caecilia LT Italic';text-align:center;text-anchor:middle"
     id="path113628" /><path
     d="m 64.665724,88.481943 h 2.198573 l -0.114584,1.317711 q -0.07161,0.837893 -0.236328,1.955083 l 0.02865,0.02865 q 0.34375,-1.682947 0.909507,-2.499355 0.651694,-0.945314 1.7474,-0.945314 0.458334,0 0.716147,0.07161 l -0.171875,1.06706 q -0.307943,-0.05729 -0.501303,-0.05729 -1.152998,0 -1.840499,1.45378 -0.751955,1.575524 -1.138675,5.177746 h -1.110028 q 0.229167,-1.725916 0.358073,-3.416024 l 0.24349,-3.229825 h -1.174481 z"
     style="font-style:italic;-inkscape-font-specification:'PMN Caecilia LT Italic';text-align:center;text-anchor:middle"
     id="path113630" /><path
     d="m 74.849341,90.129082 q 0,-0.558595 -0.608725,-0.787762 -0.214845,-0.07878 -0.508465,-0.07878 -0.988284,0 -1.625655,0.902346 -0.572918,0.809246 -0.708986,2.134119 1.668624,-0.214844 2.513678,-0.694663 0.938153,-0.537111 0.938153,-1.475264 z m 0.465496,5.514336 q -0.358074,0.207683 -0.880861,0.350912 -0.701825,0.200521 -1.40365,0.200521 -1.425133,0 -2.098312,-0.7806 -0.701824,-0.816408 -0.701824,-2.6211 0,-1.94076 1.06706,-3.222664 1.02409,-1.231773 2.642584,-1.231773 1.024091,0 1.589847,0.529949 0.494142,0.472657 0.494142,1.181643 0,1.281904 -1.353519,2.098312 -1.224612,0.737632 -3.272794,0.966799 0,1.110029 0.529949,1.618494 0.472658,0.465495 1.396488,0.465495 1.059898,0 2.126958,-0.673178 z"
     style="font-style:italic;-inkscape-font-specification:'PMN Caecilia LT Italic';text-align:center;text-anchor:middle"
     id="path113632" /><path
     d="m 82.261467,92.871927 q 0,1.145836 0.508464,1.761723 0.465496,0.565756 1.238936,0.565756 0.938153,0 1.525394,-0.744793 0.723309,-0.902346 0.723309,-2.785814 0,-1.152997 -0.508465,-1.768884 -0.465496,-0.565756 -1.238935,-0.565756 -0.938153,0 -1.525394,0.744793 -0.723309,0.916669 -0.723309,2.792975 z m -1.167321,-0.05013 q 0,-1.904953 0.902346,-3.151049 0.966799,-1.332034 2.599615,-1.332034 1.475264,0 2.212896,1.095705 0.615887,0.909508 0.615887,2.291672 0,1.933598 -0.902346,3.158211 -0.959637,1.310549 -2.599615,1.310549 -1.468103,0 -2.212896,-1.095705 -0.615887,-0.902346 -0.615887,-2.277349 z"
     style="font-style:italic;-inkscape-font-specification:'PMN Caecilia LT Italic';text-align:center;text-anchor:middle"
     id="path113634" /><path
     d="m 86.10718,98.708529 q 0.494141,0.200521 1.074221,0.200521 0.751955,0 1.289065,-0.451173 0.315105,-0.264974 0.501303,-0.945314 0.186199,-0.708986 0.300782,-2.177089 l 0.472658,-5.929701 h -1.174482 l 0.07161,-0.92383 h 1.160159 l 0.08594,-0.852215 q 0.157553,-1.532556 0.859377,-2.227219 0.751955,-0.744793 2.341802,-0.744793 0.859377,0 1.317712,0.186198 l -0.07162,0.909507 q -0.544272,-0.171875 -1.102867,-0.171875 -0.988284,0 -1.50391,0.429688 -0.601564,0.508465 -0.723309,1.668624 l -0.08594,0.802085 h 1.976567 l -0.07162,0.92383 h -1.962244 l -0.472658,5.97267 q -0.121745,1.525394 -0.315104,2.270188 -0.264975,0.988283 -0.816409,1.511071 -0.794923,0.751955 -1.876306,0.751955 -0.723309,0 -1.346357,-0.222006 z"
     style="font-style:italic;-inkscape-font-specification:'PMN Caecilia LT Italic';text-align:center;text-anchor:middle"
     id="path113636" /><path
     d="m 96.720488,98.80879 h 0.92383 l 0.837892,-9.403017 h -1.174482 l 0.0931,-0.92383 h 2.298833 q -0.164714,1.160159 -0.43685,3.4948 l 0.02865,0.02865 q 0.465496,-1.768885 1.274743,-2.714199 0.81641,-0.952476 1.90495,-0.952476 0.95964,0 1.42514,0.845054 0.37955,0.701824 0.37955,1.955082 0,0.966799 -0.30794,1.969406 -0.4082,1.339196 -1.1888,2.105473 -0.99545,0.981122 -2.47788,0.981122 -0.630205,0 -1.289061,-0.143229 l -0.250651,2.757168 h 1.174482 l -0.08594,0.92383 H 96.63455 Z m 5.564462,-9.388694 q -0.67318,0 -1.36784,0.780601 -0.67318,0.751955 -1.17448,2.033859 -0.515626,1.339196 -0.644533,2.821621 0.429689,0.214844 1.246093,0.214844 1.29623,0 2.06967,-1.289065 0.6875,-1.152998 0.6875,-2.871752 0,-1.690108 -0.81641,-1.690108 z"
     style="font-style:italic;-inkscape-font-specification:'PMN Caecilia LT Italic';text-align:center;text-anchor:middle"
     id="path113638" /><path
     d="m 105.68666,88.481943 h 2.19857 l -0.11459,1.317711 q -0.0716,0.837893 -0.23632,1.955083 l 0.0286,0.02865 q 0.34375,-1.682947 0.90951,-2.499355 0.65169,-0.945314 1.7474,-0.945314 0.45833,0 0.71615,0.07161 l -0.17188,1.06706 q -0.30794,-0.05729 -0.5013,-0.05729 -1.153,0 -1.8405,1.45378 -0.75196,1.575524 -1.13868,5.177746 h -1.11002 q 0.22916,-1.725916 0.35807,-3.416024 l 0.24349,-3.229825 h -1.17448 z"
     style="font-style:italic;-inkscape-font-specification:'PMN Caecilia LT Italic';text-align:center;text-anchor:middle"
     id="path113640" /><path
     d="m 112.41844,92.871927 q 0,1.145836 0.50847,1.761723 0.46549,0.565756 1.23893,0.565756 0.93815,0 1.5254,-0.744793 0.7233,-0.902346 0.7233,-2.785814 0,-1.152997 -0.50846,-1.768884 -0.4655,-0.565756 -1.23894,-0.565756 -0.93815,0 -1.52539,0.744793 -0.72331,0.916669 -0.72331,2.792975 z m -1.16732,-0.05013 q 0,-1.904953 0.90235,-3.151049 0.9668,-1.332034 2.59961,-1.332034 1.47527,0 2.2129,1.095705 0.61588,0.909508 0.61588,2.291672 0,1.933598 -0.90234,3.158211 -0.95964,1.310549 -2.59962,1.310549 -1.4681,0 -2.21289,-1.095705 -0.61589,-0.902346 -0.61589,-2.277349 z"
     style="font-style:italic;-inkscape-font-specification:'PMN Caecilia LT Italic';text-align:center;text-anchor:middle"
     id="path113642" /><path
     d="m 119.81624,89.405773 h -1.21745 l 0.0716,-0.92383 h 1.23178 l 0.17903,-1.890629 1.11003,-0.04297 -0.17187,1.933598 h 2.1556 l -0.0788,0.92383 h -2.16992 l -0.40821,4.619152 q -0.10026,1.174481 0.7806,1.174481 0.73764,0 1.56837,-0.451172 l -0.0931,1.038413 q -0.77344,0.408204 -1.69727,0.408204 -0.93816,0 -1.3392,-0.522787 -0.45117,-0.572918 -0.33659,-1.776046 z"
     style="font-style:italic;-inkscape-font-specification:'PMN Caecilia LT Italic';text-align:center;text-anchor:middle"
     id="path113644" /><path
     d="m 128.36705,90.129082 q 0,-0.558595 -0.60873,-0.787762 -0.21484,-0.07878 -0.50847,-0.07878 -0.98828,0 -1.62565,0.902346 -0.57292,0.809246 -0.70899,2.134119 1.66863,-0.214844 2.51368,-0.694663 0.93816,-0.537111 0.93816,-1.475264 z m 0.46549,5.514336 q -0.35807,0.207683 -0.88086,0.350912 -0.70183,0.200521 -1.40365,0.200521 -1.42513,0 -2.09831,-0.7806 -0.70183,-0.816408 -0.70183,-2.6211 0,-1.94076 1.06706,-3.222664 1.02409,-1.231773 2.64259,-1.231773 1.02409,0 1.58985,0.529949 0.49414,0.472657 0.49414,1.181643 0,1.281904 -1.35352,2.098312 -1.22461,0.737632 -3.2728,0.966799 0,1.110029 0.52995,1.618494 0.47266,0.465495 1.39649,0.465495 1.0599,0 2.12696,-0.673178 z"
     style="font-style:italic;-inkscape-font-specification:'PMN Caecilia LT Italic';text-align:center;text-anchor:middle"
     id="path113646" /><path
     d="m 132.66393,84.657716 q 0.33659,0 0.58008,0.250651 0.25065,0.24349 0.25065,0.58008 0,0.34375 -0.25065,0.594402 -0.24349,0.24349 -0.58008,0.24349 -0.34375,0 -0.5944,-0.24349 -0.24349,-0.250652 -0.24349,-0.594402 0,-0.343751 0.25065,-0.587241 0.25065,-0.24349 0.58724,-0.24349 z m -0.86654,4.748057 h -1.17448 l 0.0859,-0.92383 h 2.30599 l -0.60156,6.645849 h 1.11003 l -0.0859,0.92383 h -2.24154 z"
     style="font-style:italic;-inkscape-font-specification:'PMN Caecilia LT Italic';text-align:center;text-anchor:middle"
     id="path113648" /><path
     d="m 134.72643,88.481943 h 2.30599 q -0.0788,0.444012 -0.13606,0.852216 l -0.24349,1.754561 q -0.0716,0.48698 -0.17904,1.088544 l 0.0286,0.01432 q 0.58008,-2.18425 1.9694,-3.287117 0.70899,-0.565756 1.40365,-0.565756 1.45378,0 1.45378,1.919275 0,0.759116 -0.17188,2.248703 -0.0788,0.644533 -0.16471,1.31055 l -0.16471,1.31055 h 1.11719 l -0.0931,0.92383 h -2.25587 q 0.10743,-0.909507 0.22201,-1.761723 l 0.20052,-1.582686 q 0.19336,-1.60417 0.19336,-2.241541 0,-0.608726 -0.15039,-0.837893 -0.14323,-0.207683 -0.49414,-0.207683 -0.75196,0 -1.48243,0.981122 -0.85938,1.160159 -1.38216,3.029304 -0.12175,0.444012 -0.17188,0.744794 l -0.30794,1.876306 h -1.11719 q 0.34375,-2.699876 0.70898,-6.645849 h -1.17448 z"
     style="font-style:italic;-inkscape-font-specification:'PMN Caecilia LT Italic';text-align:center;text-anchor:middle"
     id="path113650" /><path
     d="m 143.17697,93.824403 h 0.95248 l -0.0573,1.152998 q 0.64453,0.29362 1.58268,0.29362 0.77344,0 1.22462,-0.401042 0.42252,-0.365236 0.42252,-0.930992 0,-0.501303 -0.60872,-0.852216 -0.30078,-0.171875 -1.3392,-0.558595 -0.93815,-0.34375 -1.34636,-0.687501 -0.60872,-0.501303 -0.60872,-1.246097 0,-1.038414 0.6875,-1.625655 0.73763,-0.630209 2.09831,-0.630209 0.65886,0 1.32488,0.136068 0.5013,0.107422 0.94531,0.257813 l -0.14323,1.904952 h -0.95247 l 0.0573,-1.160159 q -0.53711,-0.214844 -1.28907,-0.214844 -0.85221,0 -1.27474,0.379558 -0.34375,0.315105 -0.34375,0.744793 0,0.637372 0.83073,1.009768 0.22917,0.100261 0.56576,0.229167 l 0.85221,0.322267 q 0.83789,0.315105 1.18164,0.637371 0.47266,0.444012 0.47266,1.195966 0,1.174482 -0.75195,1.797531 -0.75196,0.615886 -2.10548,0.615886 -0.75911,0 -1.47526,-0.150391 -0.5013,-0.107422 -1.04558,-0.315104 z"
     style="font-style:italic;-inkscape-font-specification:'PMN Caecilia LT Italic';text-align:center;text-anchor:middle"
     id="path113652" /></g><metadata
   id="metadata4628"><rdf:RDF><cc:Work
       rdf:about=""><dc:format>image/svg+xml</dc:format><dc:type
         rdf:resource="http://purl.org/dc/dcmitype/StillImage" /></cc:Work></rdf:RDF></metadata><defs
   id="defs4626" /><sodipodi:namedview
   pagecolor="#ffffff"
   bordercolor="#666666"
   borderopacity="1"
   objecttolerance="10"
   gridtolerance="10"
   guidetolerance="10"
   inkscape:pageopacity="0"
   inkscape:pageshadow="2"
   inkscape:window-width="1862"
   inkscape:window-height="1136"
   id="namedview4624"
   showgrid="false"
   inkscape:zoom="7.7"
   inkscape:cx="91.493506"
   inkscape:cy="59.87013"
   inkscape:window-x="0"
   inkscape:window-y="0"
   inkscape:window-maximized="1"
   inkscape:current-layer="text27640"
   inkscape:pagecheckerboard="0" />


<g
   id="g4613">
</g>
<g
   id="g4615">
</g>
<g
   id="g4617">
</g>
<g
   id="g4619">
</g>
<g
   id="g4621">
</g>
<g
   aria-label="DSSP"
   id="text27640"
   style="font-size:53.3333px;line-height:1.25;font-family:'PMN Caecilia LT';-inkscape-font-specification:'PMN Caecilia LT';letter-spacing:0px;word-spacing:0px;fill:#3366cc"><path
     d="m 31.643659,58.483264 q 6.796871,0 10.520828,-3.93229 3.723956,-3.932289 3.723956,-10.937493 0,-6.406246 -3.541665,-10.026036 -3.671873,-3.697914 -10.442702,-3.697914 h -6.015621 l -0.208334,28.593733 z m -15.729157,0 h 3.77604 l 0.208333,-28.593733 h -3.984373 v -4.374998 h 17.708323 q 8.932286,0 13.958325,4.843747 4.921872,4.791664 4.921872,12.968743 0,8.51562 -4.973955,13.906241 -5.208331,5.624997 -13.958325,5.624997 h -17.65624 z"
     style="font-weight:bold;-inkscape-font-specification:'PMN Caecilia LT Bold'"
     id="path110181" /><path
     d="m 64.1176,52.519726 v 4.947913 q 0.885416,0.494792 2.68229,0.885416 1.953124,0.442709 4.08854,0.442709 3.645831,0 5.755204,-1.588541 2.135416,-1.614583 2.135416,-4.531247 0,-3.072915 -3.229165,-4.427081 -1.067708,-0.442708 -2.578123,-0.859375 l -6.61458,-1.874999 q -3.671873,-1.041666 -5.651038,-3.072914 -2.447915,-2.499999 -2.447915,-6.61458 0,-5.312497 4.088539,-8.229162 3.802081,-2.708331 9.973952,-2.708331 3.203123,0 6.432288,0.598958 1.380208,0.260416 2.604165,0.572916 l 2.265624,0.625 v 8.281245 h -5.651038 v -4.479164 q -2.317707,-0.911458 -5.598955,-0.911458 -3.958331,0 -5.98958,1.588541 -1.848957,1.458332 -1.848957,3.802081 0,2.239582 1.614582,3.515623 1.223958,0.963541 4.140623,1.718749 l 5.781246,1.484374 q 3.906248,1.015624 6.119788,2.968748 2.890623,2.630207 2.890623,7.057287 0,5.52083 -3.828122,8.67187 -3.802081,3.124998 -10.520827,3.124998 -3.723956,0 -8.489579,-0.911457 -2.52604,-0.46875 -4.088539,-1.067708 v -9.010411 z"
     style="font-weight:bold;-inkscape-font-specification:'PMN Caecilia LT Bold'"
     id="path110183" /><path
     d="m 96.695702,52.519726 v 4.947913 q 0.885417,0.494792 2.68229,0.885416 1.953128,0.442709 4.088538,0.442709 3.64583,0 5.75521,-1.588541 2.13541,-1.614583 2.13541,-4.531247 0,-3.072915 -3.22916,-4.427081 -1.06771,-0.442708 -2.57813,-0.859375 l -6.614576,-1.874999 q -3.671872,-1.041666 -5.651038,-3.072914 -2.447915,-2.499999 -2.447915,-6.61458 0,-5.312497 4.088539,-8.229162 3.802081,-2.708331 9.97395,-2.708331 3.20313,0 6.43229,0.598958 1.38021,0.260416 2.60417,0.572916 l 2.26562,0.625 v 8.281245 h -5.65104 v -4.479164 q -2.31771,-0.911458 -5.59895,-0.911458 -3.95834,0 -5.989584,1.588541 -1.848957,1.458332 -1.848957,3.802081 0,2.239582 1.614582,3.515623 1.223958,0.963541 4.140619,1.718749 l 5.78125,1.484374 q 3.90625,1.015624 6.11979,2.968748 2.89062,2.630207 2.89062,7.057287 0,5.52083 -3.82812,8.67187 -3.80208,3.124998 -10.52083,3.124998 -3.723954,0 -8.489576,-0.911457 -2.526041,-0.46875 -4.08854,-1.067708 v -9.010411 z"
     style="font-weight:bold;-inkscape-font-specification:'PMN Caecilia LT Bold'"
     id="path110185" /><path
     d="m 136.56547,43.665564 q 3.85417,0 5.78125,-2.031249 1.69271,-1.796874 1.69271,-5.078122 0,-3.229164 -2.08333,-5.05208 -1.84896,-1.614582 -6.17188,-1.614582 h -3.30728 l -0.10417,13.776033 z m -14.0104,14.8177 h 3.77604 l 0.20833,-28.593733 h -3.98437 v -4.374998 h 14.08853 q 3.69791,0 5.59895,0.390625 1.79688,0.364583 3.30729,1.276041 4.79167,2.890623 4.79167,9.166661 0,2.968748 -1.35417,5.651039 -1.43229,2.864581 -3.8802,4.27083 -3.07292,1.770833 -7.23958,1.770833 h -5.49479 l -0.10417,10.442702 h 4.58333 v 4.374997 h -14.29686 z"
     style="font-weight:bold;-inkscape-font-specification:'PMN Caecilia LT Bold'"
     id="path110187" /></g></svg>
